<svg version="1.1" id="Layer_1" xmlns="http://www.w3.org/2000/svg" x="0" y="0" width="500" height="219" viewBox="0 0 253.2 110.7" xml:space="preserve"><style>.st0{fill:#002337}.st1{fill:#702567}</style><path class="st0" d="M205.6 104.2c2.3 0 3.8-1.2 5.2-4.4l6.5-16.1h-2.5l-5 13-5.7-13h-2.6l7.1 15.5c-.9 2.2-1.8 2.9-3.2 2.9-1 0-1.7-.2-2.4-.6l-.8 1.8c1.2.6 2.1.9 3.4.9m-8.7-4.6c1.1 0 2-.2 2.8-.7v-2c-.8.4-1.5.5-2.3.5-1.6 0-2.6-.7-2.6-2.6v-9.1h4.9v-2h-4.9V79h-2.3v4.7h-2.2v2h2.2v9.4c0 3.2 1.9 4.5 4.4 4.5m-12.3-.3h2.3V83.8h-2.3v15.5zm-.2-18.9h2.6v-2.6h-2.6v2.6zm-9.3 19.2c3.1 0 5.5-1.7 5.5-4.7v-.1c0-2.8-2.6-3.7-5-4.4-2.1-.6-4-1.2-4-2.7v-.1c0-1.3 1.2-2.3 3-2.3 1.5 0 3.2.6 4.6 1.5l1.1-1.7c-1.6-1.1-3.7-1.7-5.6-1.7-3.1 0-5.3 1.8-5.3 4.4v.2c0 2.9 2.7 3.7 5.1 4.4 2 .6 3.9 1.2 3.9 2.7v.1c0 1.5-1.4 2.5-3.2 2.5-1.8 0-3.7-.7-5.4-2l-1.2 1.7c1.9 1.3 4.3 2.2 6.5 2.2m-16.7-.3h2.3v-6.2c0-4.7 2.8-7.1 6.2-7.1h.2v-2.5c-2.9-.1-5.2 1.7-6.3 4.3v-4.1h-2.3v15.6zm-15.8-8.7c.3-3 2.4-5.2 5.1-5.2 3.1 0 4.7 2.4 5 5.2h-10.1zm0 1.9h12.3v-.8c0-4.6-2.6-8.2-7.2-8.2-4.3 0-7.5 3.6-7.5 8.1 0 4.8 3.5 8.1 7.8 8.1 2.9 0 4.8-1.2 6.4-2.9l-1.4-1.3c-1.3 1.3-2.8 2.2-4.9 2.2-2.7-.1-5.1-2-5.5-5.2m-12.3 6.9h2l6.8-15.7h-2.5l-5.3 12.9-5.2-12.9h-2.6l6.8 15.7zm-12.3-.1h2.3V83.8H118v15.5zm-.1-18.9h2.6v-2.6h-2.6v2.6zm-18 18.9h2.3v-8.9c0-2.9 2-4.9 4.7-4.9s4.3 1.8 4.3 4.7v9.1h2.3v-9.6c0-3.7-2.2-6.2-6-6.2-2.7 0-4.3 1.4-5.3 3v-2.7h-2.3v15.5zm-13.4.3c5.3 0 8.8-3.2 8.8-9.3v-12h-2.4v12.2c0 4.6-2.5 6.9-6.3 6.9-4 0-6.4-2.6-6.4-7.1v-12h-2.4v12.2c-.1 5.9 3.5 9.1 8.7 9.1M218.1 69.3v-1.9h-.1c-1 0-1.9-.2-2.6-.5-.7-.3-1.1-1.2-1.1-2.5v-9.6c0-1.3.2-2.5.5-3.6s.9-2 1.6-2.7c.8-.7 1.8-1 3.1-1 1.8 0 3 .5 3.7 1.6.7 1.1 1.1 2.6 1.1 4.6v15.7h7.9v-1.9h-.2c-1 0-1.9-.2-2.5-.6-.7-.4-1-1.3-1-2.7v-10c0-1.2.2-2.3.5-3.4.3-1 .8-1.9 1.6-2.5.7-.6 1.7-.9 3-.9 1.8 0 3 .5 3.7 1.6.7 1.1 1.1 2.6 1.1 4.6v15.7h7.9v-1.9h-.1c-1 0-1.9-.2-2.5-.6-.7-.4-1-1.3-1-2.7V53.3c0-3.1-.7-5.4-2-6.8-1.3-1.4-3.1-2.1-5.4-2.1-1.4 0-2.7.3-3.9.8-1.2.5-2.3 1.6-3.2 3.3h-.4c-.6-1.5-1.5-2.6-2.6-3.2-1.2-.6-2.5-.9-4-.9-1.4 0-2.7.3-3.8.8-1.1.5-2.2 1.6-3.1 3.3h-.3l-.6-3.7h-7.2v1.9h.1c1 0 1.8.2 2.5.5.7.4 1 1.2 1 2.6V64c0 1.4-.3 2.3-1 2.7-.7.4-1.5.6-2.5.6h-.6v1.9h12.4zm-31.6-6.6c0-1.8.5-3.1 1.5-4.1 1-.9 2.8-1.5 5.4-1.6l2.9-.1v3.7c0 1.9-.5 3.5-1.6 4.6-1.1 1.1-2.6 1.7-4.4 1.7-2.6 0-3.8-1.4-3.8-4.2m5.7 6.4c.8-.4 1.5-.9 2.1-1.5.6-.7 1.2-1.4 1.9-2.3h.4l.7 3.9h6.1v-1.9h-.1c-1 0-1.8-.2-2.2-.7-.4-.5-.6-1.3-.6-2.6V52.3c0-2.9-.7-4.9-2.1-6.1-1.4-1.2-3.5-1.8-6.3-1.8-1.5 0-2.9.1-4.1.4-1.2.3-2.2.8-3 1.4-.7.7-1.1 1.5-1.1 2.5s.3 1.8 1 2.2c.7.4 1.6.7 2.9.7 0-.9.1-1.8.3-2.6.2-.8.6-1.4 1.2-1.8.6-.4 1.5-.6 2.6-.6 1.2 0 2.2.2 2.8.7.6.5 1 1.1 1.2 2 .2.8.3 1.8.3 2.9V55l-3.8.1c-3.5.1-6.1.8-7.8 1.9-1.7 1.2-2.6 2.9-2.6 5.4 0 2.5.7 4.3 2 5.5 1.3 1.2 3 1.8 5.1 1.8 1.3 0 2.3-.2 3.1-.6m-26.4.2v-1.9h-.1c-1 0-1.9-.2-2.6-.5-.7-.3-1.1-1.2-1.1-2.5v-9.6c0-2.2.4-4 1.3-5.4.9-1.3 2.3-2 4.2-2 1.9 0 3.1.5 3.9 1.6s1.1 2.6 1.1 4.6v15.7h7.9v-1.9h-.1c-1 0-1.9-.2-2.5-.6-.7-.4-1-1.3-1-2.7V53.3c0-3.1-.7-5.4-2.1-6.8-1.4-1.4-3.4-2.1-6-2.1-3.1 0-5.3 1.4-6.7 4.1h-.2c.1-.8.1-1.5.1-2.1V34.7h-8.4v1.9h.4c1 0 1.9.2 2.6.5.7.4 1.1 1.2 1.1 2.6v24.4c0 1.4-.4 2.3-1.1 2.7-.7.4-1.6.6-2.6.6h-.4v1.9h12.3zm-19 0v-1.9h-1.3c-1 0-1.9-.2-2.6-.5-.7-.3-1.1-1.2-1.1-2.5v-7.1c0-.9.1-1.9.2-3 .2-1.1.4-2.2.7-3.2.3-1 .8-1.9 1.4-2.6.6-.7 1.3-1 2.1-1 .9 0 1.5.3 1.9.8.4.6.5 1.5.5 2.7 1.5 0 2.6-.3 3.3-.9.7-.6 1-1.4 1-2.3 0-1.1-.4-1.9-1.2-2.5-.8-.6-2-.9-3.7-.9-1.3 0-2.4.2-3.1.7-.8.5-1.4 1.1-1.8 1.8-.5.7-.9 1.6-1.3 2.5h-.2l-.9-4.5h-7v1.9h.1c1 0 1.9.2 2.6.5.7.4 1.1 1.2 1.1 2.6v14.2c0 1.4-.4 2.3-1.1 2.7-.7.4-1.6.6-2.6.6h-.1v1.9h13.1zm-26.1-.4c1.2-.5 2.3-1.6 3.3-3.3h.2l.6 3.7h7.2v-1.9h-.1c-1 0-1.9-.2-2.6-.5-.7-.3-1.1-1.2-1.1-2.5V44.8H120v1.9h.1c1 0 1.9.2 2.6.6.7.4 1.1 1.3 1.1 2.7v9.4c0 2.2-.5 4-1.4 5.4-.9 1.4-2.4 2-4.4 2-1.9 0-3.1-.5-3.8-1.6-.7-1.1-1-2.6-1-4.6V44.8H105v1.9h.1c1 0 1.9.2 2.6.5.7.4 1.1 1.2 1.1 2.6v10.9c0 3.1.7 5.4 2 6.8 1.3 1.4 3.2 2.1 5.6 2.1 1.7.1 3.1-.2 4.3-.7M82.6 39h4c3.6 0 6.3 1.2 8.1 3.6 1.8 2.4 2.7 5.8 2.7 10.3s-.9 7.9-2.7 10.4c-1.8 2.4-4.5 3.6-8.1 3.6h-4V39zm5 30.3c3.3 0 6-.7 8.2-2 2.2-1.3 3.9-3.2 5-5.6 1.1-2.4 1.7-5.3 1.7-8.7 0-5.2-1.3-9.2-3.9-12-2.6-2.8-6.3-4.2-10.9-4.2h-14v1.9h.6c1 0 1.9.2 2.6.5.7.4 1.1 1.2 1.1 2.6v22.3c0 1.4-.4 2.3-1.1 2.7-.7.4-1.6.6-2.6.6h-.6v1.9h13.9z"/><g><path class="st1" d="M68.6 33.5c.6-5.5 0-16.6-1.1-22.5-.3-1.4-1.2-3.1-3.5-3.7C57.9 5.8 49.9 5 41.2 5c-.7 6.2-1.4 14.7-1.4 24.4V33.3l.9.1c.4 0 .6.3.7.7.1.4.1 1 .1 1s16.5-.2 27.1-1.6zM35.5 41.2l-.9-.1c-.4 0-.6-.3-.7-.7 0-.4-.1-1-.1-1-7.3 0-15.5 0-26.2 1.5 1.4 8.2 10.8 26.8 26 34.8.7-6.2 1.9-21.2 1.9-30.8v-3.7zM41.6 39.4c7.3 0 15.6 0 26.3 1.5-1.4 8.2-10.8 26.8-26 34.8-.7-6.2-2-21.2-2-30.8l.1-3.5v-.1l.9-.1c.4 0 .6-.3.7-.7-.1-.5 0-1.1 0-1.1zM21.5 22.7v.3c.1 0 .2-.1.3-.1l.2-.2h-.5z"/><path class="st1" d="M21.4 19.1L6.6 33.5C17.1 34.9 26.4 35 33.7 35h.1s.1-.5.1-1c.1-.4.2-.7.7-.7l.9-.1-14.1-14.1zm-1.3 4.2c-.1.2-.1.5.3.5.3 0 .7-.2.8-.3v.1c-.1 0-.7.5-1.1.5-.3 0-.4-.2-.4-.3 0-.2.2-.3.4-.5zm4.8 3.4c0 .3-.4.4-.5.5 0 .1-.1.1-.1.2V27c0-.1-.1-.2-.2-.2-.2 0-.8.5-.4 1.3 0-.3.1-.5.1-.5 0-.1.1-.2.1-.2.1.2.1.3.1.4 0 .3-.2.4-.1.7 0 .1 0 .1.1.2v-.3c0-.1.2-.2.2-.3v-.2c.1.1.2.3.2.5 0 .3-.1.4-.1.5 0 .1-.1.1-.1.3-.1.6-.3.8-.7.8-.2 0-.4 0-.5-.1 0 .7-.8.7-.8 1.1 0 .1.1.3.2.4.1.1.4.2.5.4-.2 0-.4.1-.5.2.3.1.3.3.3.5-.3-.1-.4-.1-.5 0-.1.1 0 .2-.1.4 0-.1-.1-.2-.2-.2s-.4.2-.4.3c0 .2-.1.3-.3.3-.2 0-.2.1-.2.2-.1-.1-.1-.2-.1-.4-.1-.1-.1-.2-.1-.3-.1.1-.1.2-.3.1-.1 0-.2.1-.2.3 0-.3 0-.4.1-.4 0-.1 0-.2.1-.3v-.1c-.1 0-.2 0-.2-.1-.1 0-.2.1-.3.2 0-.2.1-.3.2-.4.1-.2.3-.3.5-.1.1.1.2.1.4.1s.3-.1.4-.2c0-.1 0-.1.1-.1 0-.1.1-.2-.1-.4-.1-.2-.5-.5-.5-.8 0-.4.2-.6.4-.8h-.1c-.3 0-.3-.2-.5-.2s-.3.2-.3.4 0 .2.1.3c.1.1.1.2.1.4-.2-.1-.4-.2-.5-.1-.1.2-.1.3-.2.4 0-.2-.3-.4-.6-.1 0 .1-.1.2-.3.2-.1 0-.1 0-.2-.1-.1.1-.2.2-.2.3 0-.2 0-.3.1-.4 0-.1 0-.2.1-.3v-.1c-.1.1-.3.1-.4 0-.1 0-.1.1-.2.2 0-.2.1-.3.2-.4 0-.1.2-.2.3-.2V30c-.1 0-.2 0-.2-.2-.1 0-.2 0-.3.1.1-.2.2-.2.3-.2 0-.1.2-.1.2-.1.1 0 .2.1.2.1.1.2.4.3.7.3.1 0 .3-.1.3-.3 0-.2-.3-.6-.3-.8 0-.2.4-.6.6-.6.8 0 .9.3 1.1.3.2 0 .3-.1.3-.1-.4-.4-.6-.4-.9-.7-.2-.1-.3-.3-.3-.5-.2 0-.4.3-.5.5 0-.1-.1-.1-.2-.1-.2 0-.3.2-.4.4 0-.2-.2-.4-.4-.4-.1 0-.3.1-.3.1 0 .1-.2.2-.4.2-.1.1-.1.1-.2.3-.1-.3 0-.3 0-.4 0-.2 0-.3.1-.3-.1 0-.3 0-.3-.1-.1 0-.2 0-.3.2 0-.2.1-.3.2-.4 0-.1.2-.1.3-.1v-.1c-.1 0-.1-.1-.1-.3-.1-.1-.2 0-.3 0 .1-.2.3-.2.4-.1.3-.1.3 0 .4.2 0 .2.3.2.6.2.6 0 1.5-.5 1.4-1h-.3c-.3 0-.7.4-1 .4.2-.2.1-.4.1-.5-.2 0-.3.1-.7.1.1-.1.2-.3.2-.4 0-.1 0-.2-.3-.2h-.2c-.1 0-.3 0-.3-.2-.1 0-.2 0-.3.1 0-.1.3-.3.3-.3 0-.1.1-.1.2-.1v-.1c-.1 0-.3-.1-.3-.3-.1-.1-.1-.1-.3 0 .2-.2.3-.1.4-.1.2-.1.3-.1.4 0v-.3c0-.1-.1-.2-.2-.2.3 0 .4.1.4.2.1 0 .2.1.2.2 0 .2-.3.4.2.7.2.1.4.2.6.2.2.1.5.2.6.2-.1-.1 0-.3-.2-.4.2 0 .4 0 .5.1 0-.2 0-.2-.1-.3h.3c.6.1.6-.2.7-.6-.2 0-.5.1-.8.3v-.3c0-.2.1-.2.2-.2h.2c.1 0 .3-.1.2-.4 0-.1-.1-.2-.3-.2-.1 0-.1 0-.2.1-.1 0-.1.1-.1.2l-.1-.2s0-.1-.1-.1v-.1c-.1-.1 0-.3.2-.3.1 0 .3-.1.4-.1.2-.1.3-.1.3-.2s.1-.2.3-.2h.4c.3 0 .6-.2.5-.5.2 0 .3.3.2.5.1 0 .4-.1.5-.1 0 .2-.2.5-.3.5.1 0 .4 0 .5-.1 0 .2-.2.5-.3.5.3.1.4.2.5.5-.2-.1-.3 0-.5 0 .3.4.5 1 .6 1.2-.1-.1-.3-.2-.4-.2.1.3-.1.7 0 .8-.1-.1-.3-.1-.3-.2-.1.1-.2.4-.1.7-.1-.1-.2-.2-.3-.2-.1.2-.2.3-.2.8 0 .7.3 1.3.4 1.5.2.4.3.7.3.8.1.3.2.4.5.4.2 0 .4-.2.4-.5 0-.5-.6-.8-.6-1.6 0-.5.4-.8.4-1.2 0-.3-.3-.1-.5-.3.3-.1.4-.4.7-.3.2 0 .3.1.3.2s-.1.3-.1.4c.2-.2.3-.5.3-.7 0-.2-.3-.5-.2-.9v-.1c.1.5.8.6.8 1.1 0 .5-.4.4-.6.7.1.1.4.2.4.4z"/><g><path class="st1" d="M34.2 5c-8.6.1-16.8.9-22.8 2.3-2.4.5-3.3 2.2-3.6 3.6-.7 3.9-1.7 11.7-1.4 19.6 1.5-1.4 15-14.6 15-14.6L35.6 30c0-9.6-.7-18.9-1.4-25zm-21 4.5c-.1.2-.1.6.3.6.3 0 .7-.2.8-.3v.1c-.1 0-.7.5-1.2.5-.3 0-.4-.2-.4-.3.1-.3.3-.3.5-.6zm4.9 3.5c0 .3-.4.4-.5.5 0 .1-.1.1-.1.2v-.4c0-.1-.1-.2-.2-.2-.2 0-.8.5-.4 1.3 0-.3.1-.5.1-.5 0-.1.1-.2.1-.2.1.2.1.3.1.4 0 .3-.2.4-.1.7 0 .1 0 .1.1.2v-.3c0-.1.2-.2.2-.3v-.2c.1.1.2.3.2.5 0 .3-.1.4-.1.5 0 .1-.1.1-.1.3-.1.6-.4.8-.7.8-.2 0-.4 0-.6-.1 0 .7-.8.7-.8 1.2 0 .1.1.3.2.4.1.1.4.2.6.4-.2 0-.4.1-.5.2.3.2.3.3.3.5-.3-.1-.4-.1-.5 0-.1.1 0 .2-.2.4 0-.1-.1-.2-.3-.2-.1 0-.4.2-.4.3 0 .2-.1.3-.3.3-.1.1-.1.2-.1.4-.1-.1-.1-.2-.1-.4-.1-.1-.1-.2-.1-.3h-.1c-.1.1-.1.2-.3.1-.1 0-.2.1-.2.3 0-.3 0-.4.1-.5 0-.1 0-.2.1-.3v-.1c-.1 0-.2 0-.2-.1-.1 0-.2.1-.3.2 0-.2.1-.3.2-.4.1-.2.3-.3.5-.1.1.1.2.2.4.2s.3-.1.4-.2c0-.1 0-.1.1-.1 0-.1.1-.2-.1-.4-.1-.2-.5-.5-.5-.8 0-.4.2-.7.4-.8h-.1c-.3 0-.3-.2-.6-.2-.2 0-.3.2-.3.4s0 .2.1.3c.1.2.1.2.1.4-.2-.1-.4-.2-.5-.1-.1.2-.1.3-.2.4 0-.2-.3-.4-.6-.1 0 .1-.1.2-.3.2-.1 0-.1 0-.2-.1-.1.1-.2.2-.2.3 0-.2 0-.3.1-.4 0-.1 0-.2.1-.3v-.1c-.1.1-.3.1-.4 0-.1 0-.1.1-.2.2 0-.2.1-.4.2-.4 0-.1.2-.2.4-.2v-.1c-.1 0-.2 0-.2-.2-.1 0-.2 0-.3.1.1-.2.2-.2.3-.2 0-.1.2-.1.2-.1.1 0 .2.1.2.1.1.2.4.3.7.3.1 0 .3-.1.3-.3 0-.2-.3-.6-.3-.8 0-.2.4-.6.6-.6.8 0 1 .3 1.1.3.2 0 .3-.1.3-.1-.4-.5-.6-.4-1-.7-.2-.1-.3-.3-.3-.5-.2.1-.4.3-.5.5 0-.1-.1-.1-.2-.1-.2 0-.3.2-.4.4 0-.2-.2-.4-.4-.4-.1 0-.3.1-.3.2s-.2.2-.4.2c-.1.1-.1.1-.2.3-.1-.3 0-.3 0-.4 0-.2 0-.3.1-.3v-.1c-.1 0-.3 0-.3-.1-.1 0-.2 0-.3.2 0-.2.1-.3.2-.4 0-.1.2-.2.3-.2v-.1c-.1 0-.1-.1-.1-.3-.1-.1-.2 0-.3 0 .2-.3.4-.3.5-.3.3-.1.4 0 .4.2s.3.2.6.2c.6 0 1.5-.6 1.5-1h-.3c-.3 0-.7.4-1 .4.2-.2.1-.4.1-.5-.2 0-.3.1-.7.1.1-.1.2-.3.2-.4 0-.1 0-.2-.4-.2h-.2c-.1 0-.3 0-.3-.2-.1 0-.2 0-.3.1 0-.1.3-.3.3-.3 0-.1.1-.1.2-.1v-.1c-.1 0-.3-.1-.3-.3-.1-.1-.1-.1-.3 0 .2-.2.3-.2.4-.1.2-.1.3-.1.4 0v-.1-.3c0-.1-.1-.2-.2-.2.3 0 .4.1.5.2.2 0 .2.2.2.2 0 .2-.3.4.2.7.2.1.4.2.6.2.2.1.5.2.6.2-.1-.1-.1-.3-.2-.4.2 0 .4 0 .5.1 0-.2 0-.2-.1-.3h.4c.6.1.6-.2.7-.6-.2 0-.5.1-.8.3v-.3c0-.2.1-.2.2-.2h.2c.1 0 .3-.1.2-.4 0-.1-.1-.2-.3-.2-.1 0-.1 0-.2.1-.1 0-.1.1-.1.2l-.1-.2s0-.1-.1-.1v-.1c-.1-.1 0-.3.2-.3.1 0 .3-.1.4-.1.2-.1.3-.1.3-.2s.1-.2.3-.2h.4c.3 0 .6-.2.5-.5.2 0 .3.3.2.5.1 0 .4-.1.5-.1 0 .2-.2.5-.3.5.1 0 .4 0 .5-.1 0 .2-.2.5-.3.5.3.1.4.2.5.5-.2-.1-.3 0-.5 0 .4.4.5 1 .6 1.2-.1-.1-.3-.2-.4-.2.1.3-.1.7 0 .9-.1-.1-.3-.1-.3-.2-.1.1-.2.4-.1.8-.1-.1-.2-.2-.3-.2-.1.2-.2.3-.2.8 0 .7.3 1.3.4 1.6.2.4.3.7.3.9.1.3.3.4.5.4s.4-.2.4-.5c0-.5-.6-.8-.6-1.6 0-.6.4-.8.4-1.2 0-.3-.3-.1-.5-.3.3-.1.4-.4.7-.3.2 0 .3.1.3.2 0 .2-.1.3-.1.4.2-.2.3-.5.3-.7 0-.2-.3-.5-.2-1V11c.1.5.8.6.8 1.2 0 .5-.4.4-.7.7.2-.2.5-.2.5.1zM27 8.6c0 .2 0 .5.3.5s.8-.2.9-.3v.1c-.1 0-.7.5-1.2.5-.3 0-.4-.2-.4-.3 0-.2.2-.3.4-.5zm5.2 3.6c0 .3-.4.4-.5.6 0 .1-.1.1-.1.2-.1-.2 0-.3 0-.4 0-.1-.1-.2-.2-.2-.2 0-.8.5-.4 1.4 0-.3.1-.5.1-.6.1-.1.1-.2.1-.3.1.2.1.3.1.5 0 .4-.3.4-.1.7 0 .1 0 .1.1.2V14c0-.1.2-.3.2-.3v-.2c.1.1.2.3.2.5 0 .3-.1.4-.2.5 0 .1-.1.2-.1.3-.1.6-.4.9-.8.9-.2 0-.4 0-.6-.1 0 .8-.9.7-.9 1.2 0 .1.1.3.2.4.1.1.4.2.6.4-.2 0-.4.1-.5.2.3.2.3.3.3.6-.3-.2-.5-.1-.5 0-.1.1 0 .2-.2.4 0-.1-.1-.2-.3-.2-.1 0-.4.2-.4.3 0 .2-.1.3-.3.3v.2c-.1-.1-.1-.2-.1-.4-.1-.1-.1-.2-.1-.3h-.1c-.1.1-.2.2-.3.1-.1 0-.2.1-.2.3 0-.3.1-.4.1-.5 0-.1 0-.2.1-.3v-.1c-.1 0-.2 0-.2-.1-.1 0-.2.1-.3.2 0-.2.1-.4.2-.4.1-.2.3-.3.5-.1.1.1.3.2.4.2.2 0 .4-.2.4-.2 0-.1 0-.1.1-.1 0-.1.1-.2-.1-.4-.1-.2-.5-.6-.5-.8 0-.4.2-.7.4-.8h-.2c-.3 0-.3-.2-.6-.2-.2 0-.3.2-.3.4s0 .2.1.3c.1.2.1.2.1.4-.2-.1-.4-.2-.6-.1-.1.2-.1.3-.2.4 0-.2-.4-.4-.7-.2 0 .1-.1.2-.3.2-.1 0-.1 0-.2-.1-.1.1-.2.2-.2.3 0-.2 0-.3.1-.4 0-.1 0-.3.1-.3v-.1c-.1.1-.4.1-.4 0-.1 0-.2.1-.2.2 0-.2.1-.4.2-.4 0-.1.2-.2.4-.2v-.1c-.1 0-.2 0-.2-.3-.1 0-.2 0-.3.1.1-.2.2-.2.4-.3 0-.1.2-.1.2-.1.1 0 .2.1.2.1.1.2.4.3.7.3.1 0 .3-.1.3-.3 0-.2-.3-.6-.3-.9 0-.2.4-.6.7-.6.8 0 1 .3 1.2.3.3 0 .3-.1.3-.1-.4-.5-.6-.5-1-.7-.2-.1-.3-.3-.3-.5-.2.1-.4.4-.6.5-.1-.1-.1-.1-.2-.1-.2 0-.3.2-.4.4-.1-.2-.2-.4-.5-.4-.1 0-.3.1-.4.2 0 .1-.2.2-.4.2-.1.1-.2.1-.2.3-.1-.3 0-.4 0-.4 0-.2 0-.3.1-.3v-.1c-.1 0-.3 0-.3-.1-.1 0-.2 0-.3.2 0-.2.1-.3.3-.4 0-.1.2-.2.3-.2v-.1c-.1 0-.1-.1-.1-.3-.1-.1-.2 0-.3 0 .2-.2.3-.2.5-.2.3-.1.4 0 .4.2s.3.2.6.2c.6 0 1.6-.6 1.5-1H27c-.3 0-.7.4-1.1.4.2-.2.1-.4.2-.5-.2 0-.4.1-.7.1.1-.1.2-.3.2-.4 0-.1 0-.3-.4-.3H25c-.1 0-.3 0-.3-.2-.1 0-.2 0-.3.1 0-.1.3-.3.4-.3.1-.1.2-.1.2-.1v-.1c-.1 0-.3-.1-.3-.3-.1-.1-.1-.1-.3 0 .2-.2.3-.2.4-.1.2-.1.3-.1.4 0l.1-.1v-.3c0-.1-.1-.2-.2-.2.3 0 .4.1.5.2.2 0 .3.2.3.3 0 .3-.3.4.3.7.2.1.4.2.6.2.2.1.5.2.6.2-.1-.1-.1-.3-.2-.4.2 0 .4 0 .5.1 0-.2 0-.2-.1-.3h.4c.6.1.6-.2.7-.6-.2 0-.5.1-.9.3v-.3c0-.2.1-.2.2-.2h.2c.1 0 .3-.1.2-.4 0-.1-.1-.2-.3-.2-.1 0-.1 0-.2.1-.1 0-.1.1-.1.2l-.1-.2s0-.1-.1-.2v-.1c-.1-.1 0-.3.2-.3.1 0 .3-.1.4-.1.2-.1.3-.1.3-.3 0-.1.1-.2.3-.2h.4c.3 0 .6-.2.5-.5.2 0 .3.4.2.5.1 0 .4-.1.5-.1 0 .2-.2.5-.3.6.2 0 .4 0 .5-.1-.1.2-.2.5-.3.6.3.1.4.2.6.6-.2-.1-.3 0-.5 0 .4.4.5 1.1.6 1.3-.1-.1-.3-.2-.4-.2.2.4-.1.7 0 .9-.4-.1-.6-.2-.6-.3-.1.1-.2.4-.1.8-.1-.1-.3-.2-.3-.2-.1.2-.2.3-.2.8 0 .7.3 1.4.5 1.6.2.4.3.7.3.9.1.3.3.4.5.4s.5-.2.5-.5c0-.5-.6-.8-.6-1.7 0-.6.4-.9.5-1.2 0-.3-.3-.1-.5-.3.3-.1.5-.4.7-.4.2 0 .3.1.3.2 0 .2-.1.3-.1.4.2-.2.4-.5.4-.7 0-.2-.3-.5-.3-1v-.1c.1.5.9.7.9 1.2s-.4.4-.7.8c0 0 .4 0 .4.3z"/><path class="st1" d="M14.7 9v.3c.1 0 .2-.1.3-.1l.2-.2c-.1-.1-.5-.1-.5 0zM28.6 8v.3c.1 0 .2-.1.3-.1.1-.1.1-.2.3-.2-.2-.1-.6-.1-.6 0z"/></g></g></svg>
